<svg id="_ÎÓÈ_1" data-name="—ÎÓÈ_1" xmlns="http://www.w3.org/2000/svg" viewBox="0 0 246.25 70.29"><defs><style>.cls-1{fill:#222;}.cls-2{fill:#4bc0c8;}.cls-3{fill:#02819b;}</style></defs><title>rgb-text-transparent-bg-trimmed</title><rect class="cls-1" width="9.03" height="59.07"/><path class="cls-1" d="M35.1,23.93A18.46,18.46,0,0,0,21.72,29.1a17.59,17.59,0,0,0-5.3,13.09,17.66,17.66,0,0,0,5.26,13.09A18.31,18.31,0,0,0,35,60.45a18.31,18.31,0,0,0,13.34-5.17,17.77,17.77,0,0,0,5.26-13.17,17.6,17.6,0,0,0-5.21-13A18.26,18.26,0,0,0,35.1,23.93Zm8.75,18.26a9.19,9.19,0,0,1-2.47,6.58,8.33,8.33,0,0,1-6.27,2.59,8.56,8.56,0,0,1-6.4-2.59,9.21,9.21,0,0,1-2.51-6.66,9,9,0,0,1,2.51-6.53A8.53,8.53,0,0,1,35,33a8.46,8.46,0,0,1,6.32,2.59A9.11,9.11,0,0,1,43.85,42.19Z"/><path class="cls-1" d="M76.45,23.93A18.46,18.46,0,0,0,63.07,29.1a17.59,17.59,0,0,0-5.3,13.09A17.66,17.66,0,0,0,63,55.28a18.31,18.31,0,0,0,13.34,5.17A18.31,18.31,0,0,0,89.7,55.28,17.77,17.77,0,0,0,95,42.11a17.6,17.6,0,0,0-5.21-13A18.26,18.26,0,0,0,76.45,23.93Zm8.75,18.26a9.19,9.19,0,0,1-2.47,6.58,8.33,8.33,0,0,1-6.27,2.59A8.56,8.56,0,0,1,70,48.77a9.21,9.21,0,0,1-2.51-6.66A9,9,0,0,1,70,35.57a9.05,9.05,0,0,1,12.64,0A9.11,9.11,0,0,1,85.19,42.19Z"/><path class="cls-1" d="M153,28.36c-2.68-2.94-6.44-4.42-11.2-4.42a14.9,14.9,0,0,0-12.55,6c-2.7-4-6.68-6-11.83-6s-9,1.48-11.91,4.41-4.32,7-4.32,12.15V59.43h9.76V40.5A7.87,7.87,0,0,1,112.66,35a6.41,6.41,0,0,1,5-1.91,6,6,0,0,1,4.75,2,7.85,7.85,0,0,1,1.81,5.37V59.43h9.76V40.5a7.38,7.38,0,0,1,2-5.31A6.74,6.74,0,0,1,141,33.11,5.58,5.58,0,0,1,145.57,35a8.29,8.29,0,0,1,1.65,5.46V59.43H157V40.5C157,35.37,155.62,31.28,153,28.36Z"/><path class="cls-2" d="M228.64,70.29l-49.89-35a12.93,12.93,0,0,1,0-21.17l12.07-8.44,49.89,35a12.93,12.93,0,0,1,0,21.17Zm-37.81-59-9.42,6.59a8.31,8.31,0,0,0,0,13.62l47.25,33.17,9.42-6.59a8.31,8.31,0,0,0,0-13.62Z"/><path class="cls-3" d="M190.78,64.62,181.38,58a8.31,8.31,0,0,1,0-13.62l24.34-17-4-2.82-23,16.07a12.93,12.93,0,0,0,0,21.17l12.05,8.46,14.91-10.43-4-2.82Z"/><path class="cls-3" d="M240.75,14.14,228.69,5.68,213.77,16.12l4,2.82,10.9-7.63,9.41,6.6a8.31,8.31,0,0,1,0,13.62l-24.34,17,4,2.82,23-16.07a12.93,12.93,0,0,0,0-21.17Z"/><rect class="cls-3" x="180.84" y="31.55" width="23.16" height="4.61" transform="translate(15.34 116.41) rotate(-34.98)"/><path class="cls-3" d="M235.64,33.24l-9.24,6.47L229,43.49l9.59-6.71C237.62,35.61,236.63,34.43,235.64,33.24Z"/></svg>